<svg xmlns="http://www.w3.org/2000/svg" id="Capa_3" data-name="Capa 3" viewBox="0 0 140.51 91.26"><defs><style>.cls-1{fill:#fff}.cls-2,.cls-3{fill:none}.cls-2{stroke:#fff;stroke-width:.63px}</style></defs><title>negat_azul</title><polyline points="49.25 91.26 49.25 0 140.51 0 140.51 91.26 49.25 91.26" class="cls-1"/><path d="M238,348.84v1.75c-5.26.36-5.44.48-5.44,3.87v20.81a21.47,21.47,0,0,1-1.64,9c-2.78,6-9.13,7.38-15.12,7.38s-12.27-1.45-15.06-7.38a21.86,21.86,0,0,1-1.63-8.83V354.46c0-3.39-.12-3.51-5.45-3.87v-1.75h16.88v1.75c-5.26.36-5.44.48-5.44,3.87v19.6c0,5.74.9,9.37,2.72,11.79a10.66,10.66,0,0,0,16,0c1.81-2.42,2.72-6.05,2.72-11.79v-19.6c0-3.39-.12-3.51-5.44-3.87v-1.75Z" class="cls-1" transform="translate(-193.35 -341.15)"/><path d="M238,348.84v1.75c-5.26.36-5.44.48-5.44,3.87v20.81a21.47,21.47,0,0,1-1.64,9c-2.78,6-9.13,7.38-15.12,7.38s-12.27-1.45-15.06-7.38a21.86,21.86,0,0,1-1.63-8.83V354.46c0-3.39-.12-3.51-5.45-3.87v-1.75h16.88v1.75c-5.26.36-5.44.48-5.44,3.87v19.6c0,5.74.9,9.37,2.72,11.79a10.66,10.66,0,0,0,16,0c1.81-2.42,2.72-6.05,2.72-11.79v-19.6c0-3.39-.12-3.51-5.44-3.87v-1.75Z" class="cls-2" transform="translate(-193.35 -341.15)"/><path d="M247.92,378.29h1.94c1.51,6.78,5.26,11.19,10.94,11.19,5.39,0,8.71-3.14,8.71-8.35,0-5.38-5.74-8.16-8.4-9.19l-1.09-.42c-6.35-2.24-11.43-5.57-11.43-11.92,0-8,6.53-11.67,13.91-11.67,4.11,0,8.22,1,10.28,2.66v8.53h-1.87c-1-6.11-3.88-9.08-9.08-9.08s-7.74,3.27-7.74,7.69c0,3.63,3.39,6.23,7.44,7.74l1.93.73c7.08,2.59,11.92,6,11.92,13.12,0,6.17-4.23,12.28-14.94,12.28-4.23,0-9.25-1.15-11.91-3.63Z" class="cls-3" transform="translate(-193.35 -341.15)"/><path d="M247.92,378.29h1.94c1.51,6.78,5.26,11.19,10.94,11.19,5.39,0,8.71-3.14,8.71-8.35,0-5.38-5.74-8.16-8.4-9.19l-1.09-.42c-6.35-2.24-11.43-5.57-11.43-11.92,0-8,6.53-11.67,13.91-11.67,4.11,0,8.22,1,10.28,2.66v8.53h-1.87c-1-6.11-3.88-9.08-9.08-9.08s-7.74,3.27-7.74,7.69c0,3.63,3.39,6.23,7.44,7.74l1.93.73c7.08,2.59,11.92,6,11.92,13.12,0,6.17-4.23,12.28-14.94,12.28-4.23,0-9.25-1.15-11.91-3.63Z" class="cls-3" transform="translate(-193.35 -341.15)"/><path d="M318.93,359.72h-1.81C316,352.59,311.67,350,305.5,350c-11.25-.05-15.18,9.92-15.18,19.84,0,7.32,2.6,19.6,15.06,19.6,7.93,0,11-4.6,12.7-10.89h1.82l-.85,10.11c-2.9,1.57-8.47,2.9-13.3,2.9-6.78,0-12.71-1.39-16.46-5.14s-5.74-9.32-5.74-16.39c0-6.84,2.05-12,5.5-15.91,3.63-4.05,9.62-6.23,17.06-6.23a32,32,0,0,1,12.82,2.36Z" class="cls-3" transform="translate(-193.35 -341.15)"/><path d="M318.93,359.72h-1.81C316,352.59,311.67,350,305.5,350c-11.25-.05-15.18,9.92-15.18,19.84,0,7.32,2.6,19.6,15.06,19.6,7.93,0,11-4.6,12.7-10.89h1.82l-.85,10.11c-2.9,1.57-8.47,2.9-13.3,2.9-6.78,0-12.71-1.39-16.46-5.14s-5.74-9.32-5.74-16.39c0-6.84,2.05-12,5.5-15.91,3.63-4.05,9.62-6.23,17.06-6.23a32,32,0,0,1,12.82,2.36Z" class="cls-3" transform="translate(-193.35 -341.15)"/><path d="M247.83,399.62l-.05-.81-.38-.05-.06-.43h1.83l0,.43-.38.05-.05.81v2.48a5.27,5.27,0,0,0,.15,1.54,1.43,1.43,0,0,0,1.39.89,1.52,1.52,0,0,0,1.29-.65,3.2,3.2,0,0,0,.24-1.6v-2.66l0-.81-.38-.05-.05-.43h1.62l-.05.43-.38.05-.05.81v2.43a3.44,3.44,0,0,1-.36,2,2,2,0,0,1-1.9.91,2.27,2.27,0,0,1-1.86-.74,3,3,0,0,1-.47-1.94v-2.66" class="cls-3" transform="translate(-193.35 -341.15)"/><polyline points="61.11 58.46 61.06 57.66 60.68 57.6 60.63 57.17 61.78 57.17 65.18 62.44 65.18 58.46 65.12 57.66 64.75 57.6 64.69 57.17 66.27 57.17 66.21 57.6 65.84 57.66 65.78 58.46 65.78 63.73 65.05 63.73 61.72 58.54 61.72 62.35 61.77 63.16 62.15 63.21 62.2 63.64 60.63 63.64 60.68 63.21 61.06 63.16 61.11 62.35 61.11 58.46" class="cls-3"/><polyline points="67.93 58.46 67.88 57.66 67.5 57.6 67.45 57.17 69.28 57.17 69.22 57.6 68.84 57.66 68.79 58.46 68.79 62.35 68.84 63.16 69.22 63.21 69.28 63.64 67.45 63.64 67.5 63.21 67.88 63.16 67.93 62.35 67.93 58.46" class="cls-3"/><polyline points="70.77 58.36 70.45 57.66 70.18 57.6 70.13 57.17 71.91 57.17 71.85 57.6 71.42 57.66 73.24 62.38 74.98 57.66 74.56 57.6 74.5 57.17 75.88 57.17 75.83 57.6 75.56 57.66 75.16 58.57 73.27 63.73 72.84 63.73 70.77 58.36" class="cls-3"/><polyline points="76.67 63.64 76.72 63.21 77.1 63.16 77.15 62.35 77.15 58.46 77.1 57.66 76.72 57.6 76.67 57.17 80.77 57.17 80.71 58.15 80.28 58.09 80.23 57.66 79.31 57.6 78.01 57.6 78.01 60.04 80.28 60.04 80.23 60.52 79.14 60.47 78.01 60.47 78.01 62.35 78.06 63.16 79.53 63.16 80.42 63.11 80.47 62.62 80.9 62.57 80.95 63.64 76.67 63.64" class="cls-3"/><path d="M276.5,401.94h.78L279,404.8h1.31l-.06-.43-.37-.06-.53-.72-1.22-1.84a1.85,1.85,0,0,0,1.35-1.82,1.52,1.52,0,0,0-.63-1.3,2.31,2.31,0,0,0-1.34-.3h-2.35l0,.43.38.05.05.81v3.89l-.05.8-.38.06,0,.43h1.72l-.05-.43-.33-.06v-2.37m0-.43v-2.65a3.23,3.23,0,0,1,.76-.1c.79,0,1.31.38,1.31,1.2a1.53,1.53,0,0,1-.49,1.23,2.21,2.21,0,0,1-1.41.32h-.17" class="cls-3" transform="translate(-193.35 -341.15)"/><path d="M281.23,403.58l.43.05,0,.44a2.32,2.32,0,0,0,1.23.46,1.22,1.22,0,0,0,1.31-1.22c0-.82-.62-1.11-1.24-1.46-.78-.44-1.73-1-1.73-2a1.72,1.72,0,0,1,.54-1.22,1.78,1.78,0,0,1,1.32-.49,5.75,5.75,0,0,1,1.65.26l-.05,1-.43-.06-.06-.44a2.23,2.23,0,0,0-1.12-.34,1,1,0,0,0-1,1.08c0,.71.59,1,1.12,1.31a12.19,12.19,0,0,1,1.2.76,1.63,1.63,0,0,1,.67,1.35A1.94,1.94,0,0,1,283,405a6.74,6.74,0,0,1-1.84-.3l.06-1.08" class="cls-3" transform="translate(-193.35 -341.15)"/><polyline points="93.3 58.46 93.24 57.66 92.86 57.6 92.81 57.17 94.64 57.17 94.58 57.6 94.21 57.66 94.15 58.46 94.15 62.35 94.21 63.16 94.58 63.21 94.64 63.64 92.81 63.64 92.86 63.21 93.24 63.16 93.3 62.35 93.3 58.46" class="cls-3"/><path d="M289.17,404.8h2.61a3,3,0,0,0,2.41-.93,3.71,3.71,0,0,0,.81-2.46,3.28,3.28,0,0,0-.81-2.3,3,3,0,0,0-2.29-.78h-2.73l.06.43.38.05.05.81v3.89l-.05.8-.38.06-.06.43m1.4-.54-.05-.75v-4.75h.58a2.93,2.93,0,0,1,2.17.6,2.79,2.79,0,0,1,.82,2.12,3.33,3.33,0,0,1-.61,2,2.33,2.33,0,0,1-2,.8l-.92-.05" class="cls-3" transform="translate(-193.35 -341.15)"/><path d="M297.14,402.86h2.71l.59,1.45-.43.06-.05.43h1.79l-.05-.43-.27-.06-.34-.7L299,398.22h-.52l-2,5.18-.44.91-.27.06-.05.43h1.43l-.06-.43-.43-.06.55-1.45m.17-.43,1.18-3,1.19,3h-2.37" class="cls-3" transform="translate(-193.35 -341.15)"/><path d="M302.5,404.8h2.61a2.93,2.93,0,0,0,2.4-.93,3.71,3.71,0,0,0,.82-2.46,3.29,3.29,0,0,0-.82-2.3,3,3,0,0,0-2.28-.78H302.5l.05.43.38.05.05.81v3.89l-.05.8-.38.06-.05.43m1.4-.54-.06-.75v-4.75h.58a3,3,0,0,1,2.18.6,2.78,2.78,0,0,1,.81,2.12,3.33,3.33,0,0,1-.61,2,2.31,2.31,0,0,1-2,.8l-.92-.05" class="cls-3" transform="translate(-193.35 -341.15)"/><polyline points="116.11 63.64 116.16 63.21 116.54 63.16 116.59 62.35 116.59 58.46 116.54 57.66 116.16 57.6 116.11 57.17 120.21 57.17 120.15 58.15 119.72 58.09 119.67 57.66 118.75 57.6 117.45 57.6 117.45 60.04 119.72 60.04 119.67 60.52 118.59 60.47 117.45 60.47 117.45 62.35 117.5 63.16 118.97 63.16 119.86 63.11 119.91 62.62 120.34 62.57 120.39 63.64 116.11 63.64" class="cls-3"/><path d="M247.45,415.74h2.61a2.92,2.92,0,0,0,2.41-.93,3.68,3.68,0,0,0,.81-2.45,3.27,3.27,0,0,0-.81-2.3,3,3,0,0,0-2.29-.79h-2.73l.06.43.37.06.06.8v3.89l-.06.81-.37.05-.06.43m1.4-.53,0-.76V409.7h.58a3,3,0,0,1,2.17.6,2.82,2.82,0,0,1,.82,2.12,3.31,3.31,0,0,1-.61,2,2.31,2.31,0,0,1-2,.81l-.92-.05" class="cls-3" transform="translate(-193.35 -341.15)"/><polyline points="61.06 74.59 61.11 74.16 61.49 74.11 61.54 73.3 61.54 69.41 61.49 68.6 61.11 68.55 61.06 68.12 65.16 68.12 65.1 69.09 64.67 69.04 64.62 68.6 63.7 68.55 62.4 68.55 62.4 70.98 64.67 70.98 64.62 71.47 63.54 71.41 62.4 71.41 62.4 73.3 62.45 74.11 63.92 74.11 64.81 74.05 64.86 73.57 65.29 73.52 65.35 74.59 61.06 74.59" class="cls-3"/><path d="M262.41,414.53l.43.05.05.44a2.31,2.31,0,0,0,1.23.45,1.21,1.21,0,0,0,1.31-1.21c0-.82-.61-1.11-1.24-1.47s-1.73-.94-1.73-2a1.76,1.76,0,0,1,.54-1.23,1.82,1.82,0,0,1,1.32-.49,5.43,5.43,0,0,1,1.65.27l-.05,1-.43-.05-.06-.44a2.24,2.24,0,0,0-1.12-.35,1,1,0,0,0-1,1.09c0,.7.58,1,1.12,1.31a10.51,10.51,0,0,1,1.2.75,1.64,1.64,0,0,1,.67,1.35,1.94,1.94,0,0,1-2.1,1.87,7.15,7.15,0,0,1-1.84-.3l.06-1.08" class="cls-3" transform="translate(-193.35 -341.15)"/><path d="M268.35,413.8h2.71l.59,1.46-.43.05-.05.43H273l0-.43-.27-.05-.34-.71-2.13-5.38h-.52l-2,5.18-.44.91-.27.05-.05.43h1.43l-.06-.43-.43-.05.55-1.46m.17-.43,1.18-3,1.19,3h-2.37" class="cls-3" transform="translate(-193.35 -341.15)"/><polyline points="80.85 69.41 80.79 68.6 80.42 68.55 80.36 68.12 81.52 68.12 84.91 73.39 84.91 69.41 84.86 68.6 84.48 68.55 84.43 68.12 86 68.12 85.95 68.55 85.57 68.6 85.52 69.41 85.52 74.67 84.78 74.67 81.45 69.49 81.45 73.3 81.51 74.11 81.88 74.16 81.94 74.59 80.36 74.59 80.42 74.16 80.79 74.11 80.85 73.3 80.85 69.41" class="cls-3"/><polyline points="89.23 68.55 88.11 68.55 87.4 68.6 87.34 69.09 86.91 69.15 86.86 68.12 92.46 68.12 92.41 69.15 91.98 69.09 91.92 68.6 91.22 68.55 90.09 68.55 90.09 73.3 90.14 74.11 90.52 74.16 90.57 74.59 88.75 74.59 88.8 74.16 89.18 74.11 89.23 73.3 89.23 68.55" class="cls-3"/><polyline points="93.81 69.41 93.76 68.6 93.38 68.55 93.33 68.12 95.16 68.12 95.1 68.55 94.73 68.6 94.67 69.41 94.67 73.3 94.73 74.11 95.1 74.16 95.16 74.59 93.33 74.59 93.38 74.16 93.76 74.11 93.81 73.3 93.81 69.41" class="cls-3"/><path d="M290.71,413.8h2.71l.59,1.46-.43.05-.05.43h1.78l-.05-.43-.27-.05-.34-.71-2.13-5.38H292l-2,5.18-.44.91-.27.05-.05.43h1.43l-.05-.43-.43-.05.55-1.46m.17-.43,1.18-3,1.19,3h-2.37" class="cls-3" transform="translate(-193.35 -341.15)"/><path d="M300.36,413.67l-.49-.06-.05-.43h1.88l-.05.43-.37.06-.06.92v1a8.14,8.14,0,0,1-2.08.33c-2.05,0-3.13-1.49-3.13-3.44a3.93,3.93,0,0,1,.74-2.38,2.86,2.86,0,0,1,2.33-1,8.54,8.54,0,0,1,2.2.32l-.06,1.14-.43-.05-.05-.49a3.16,3.16,0,0,0-1.58-.49c-1.63,0-2.23,1.65-2.23,3,0,1.54.84,2.87,2.5,2.87a3.67,3.67,0,0,0,.93-.14v-1.64" class="cls-3" transform="translate(-193.35 -341.15)"/><path d="M305.67,415.91a2.84,2.84,0,0,0,2.29-1,4.3,4.3,0,0,0-.07-4.81,2.83,2.83,0,0,0-2.22-.95,2.78,2.78,0,0,0-2.29,1,3.61,3.61,0,0,0-.71,2.36,3.56,3.56,0,0,0,.74,2.4,2.83,2.83,0,0,0,2.26,1m0-.44c-1.6,0-2.09-1.64-2.09-3s.49-3,2.09-3,2.07,1.65,2.07,3-.48,3-2.07,3" class="cls-3" transform="translate(-193.35 -341.15)"/><path d="M247.45,426.69h2.61a3,3,0,0,0,2.41-.93,3.68,3.68,0,0,0,.81-2.45,3.25,3.25,0,0,0-.81-2.3,3,3,0,0,0-2.29-.79h-2.73l.06.43.37.05.06.81v3.89l-.06.81-.37.05-.06.43m1.4-.54,0-.75v-4.75h.58a3,3,0,0,1,2.17.6,2.79,2.79,0,0,1,.82,2.12,3.31,3.31,0,0,1-.61,2,2.31,2.31,0,0,1-2,.81l-.92-.06" class="cls-3" transform="translate(-193.35 -341.15)"/><polyline points="61.06 85.53 61.11 85.11 61.49 85.05 61.54 84.25 61.54 80.35 61.49 79.55 61.11 79.5 61.06 79.06 65.16 79.06 65.1 80.04 64.67 79.99 64.62 79.55 63.7 79.5 62.4 79.5 62.4 81.93 64.67 81.93 64.62 82.41 63.54 82.36 62.4 82.36 62.4 84.25 62.45 85.05 63.92 85.05 64.81 85 64.86 84.52 65.29 84.46 65.35 85.53 61.06 85.53" class="cls-3"/><path d="M267.47,420.38l-.05,1-.43-.05-.05-.46a2.81,2.81,0,0,0-1.42-.41,1.93,1.93,0,0,0-1.75,1,4.14,4.14,0,0,0-.53,2.07c0,1.49.82,2.87,2.45,2.87a3.28,3.28,0,0,0,1.85-.57v.51a3.71,3.71,0,0,1-2,.52,2.85,2.85,0,0,1-2.37-1,3.62,3.62,0,0,1-.81-2.46,3.79,3.79,0,0,1,.78-2.41,2.88,2.88,0,0,1,2.37-.94,6.87,6.87,0,0,1,1.86.28l.13,0" class="cls-3" transform="translate(-193.35 -341.15)"/><path d="M271.66,426.85a2.81,2.81,0,0,0,2.29-1,4.29,4.29,0,0,0-.07-4.8,3.05,3.05,0,0,0-4.51.09,3.66,3.66,0,0,0-.71,2.36,3.57,3.57,0,0,0,.75,2.4,2.8,2.8,0,0,0,2.25,1m0-.43c-1.6,0-2.08-1.65-2.08-3s.48-3,2.08-3,2.08,1.64,2.08,3-.49,3-2.08,3" class="cls-3" transform="translate(-193.35 -341.15)"/><polyline points="83.58 84.25 83.63 85.05 84 85.11 84.06 85.53 82.43 85.53 82.48 85.11 82.86 85.05 82.91 84.25 82.91 80.35 82.86 79.55 82.48 79.5 82.43 79.06 83.98 79.06 85.8 83.82 87.68 79.06 89.01 79.06 88.95 79.5 88.58 79.55 88.52 80.35 88.52 84.25 88.58 85.05 88.95 85.11 89.01 85.53 87.23 85.53 87.29 85.11 87.67 85.05 87.72 84.25 87.72 80.31 87.7 80.31 85.83 85.05 85.4 85.05 83.59 80.31 83.58 80.31 83.58 84.25" class="cls-3"/><path d="M284.88,424H285a4.1,4.1,0,0,0,2-.38,1.88,1.88,0,0,0,.9-1.72c0-1.18-.77-1.68-1.88-1.68h-2.48l0,.43.38.05,0,.81v3.89l0,.81-.38.05,0,.43h1.94l-.06-.43-.54-.05V424m0-.43v-2.81a3,3,0,0,1,.78-.11c.87,0,1.33.37,1.33,1.26a1.66,1.66,0,0,1-.53,1.3,2,2,0,0,1-1.4.36h-.18" class="cls-3" transform="translate(-193.35 -341.15)"/><path d="M291.68,426.85a2.81,2.81,0,0,0,2.29-1,4.29,4.29,0,0,0-.07-4.8,3.05,3.05,0,0,0-4.51.09,3.61,3.61,0,0,0-.71,2.36,3.56,3.56,0,0,0,.74,2.4,2.82,2.82,0,0,0,2.26,1m0-.43c-1.6,0-2.08-1.65-2.08-3s.48-3,2.08-3,2.08,1.64,2.08,3-.49,3-2.08,3" class="cls-3" transform="translate(-193.35 -341.15)"/><path d="M295.83,425.47l.42.06.06.43a2.21,2.21,0,0,0,1.22.46,1.22,1.22,0,0,0,1.32-1.22c0-.82-.62-1.1-1.24-1.46-.78-.44-1.73-.94-1.73-2a1.72,1.72,0,0,1,.53-1.23,1.81,1.81,0,0,1,1.33-.49,5.48,5.48,0,0,1,1.65.27l-.06,1-.43-.05,0-.44a2.14,2.14,0,0,0-1.12-.35,1,1,0,0,0-1,1.08c0,.71.58,1,1.12,1.32a11.46,11.46,0,0,1,1.2.75,1.63,1.63,0,0,1,.67,1.35,1.94,1.94,0,0,1-2.1,1.86,7.14,7.14,0,0,1-1.84-.29l.06-1.09" class="cls-3" transform="translate(-193.35 -341.15)"/><polyline points="109.46 79.5 108.33 79.5 107.62 79.55 107.57 80.04 107.14 80.09 107.09 79.06 112.69 79.06 112.63 80.09 112.2 80.04 112.15 79.55 111.44 79.5 110.32 79.5 110.32 84.25 110.37 85.05 110.75 85.11 110.8 85.53 108.97 85.53 109.03 85.11 109.4 85.05 109.46 84.25 109.46 79.5" class="cls-3"/><polyline points="113.56 85.53 113.61 85.11 113.98 85.05 114.04 84.25 114.04 80.35 113.98 79.55 113.61 79.5 113.56 79.06 117.66 79.06 117.6 80.04 117.17 79.99 117.12 79.55 116.19 79.5 114.9 79.5 114.9 81.93 117.17 81.93 117.12 82.41 116.03 82.36 114.9 82.36 114.9 84.25 114.95 85.05 116.42 85.05 117.31 85 117.36 84.52 117.79 84.46 117.84 85.53 113.56 85.53" class="cls-3"/><polyline points="119.18 80.35 119.13 79.55 118.76 79.5 118.7 79.06 120.53 79.06 120.47 79.5 120.1 79.55 120.05 80.35 120.05 84.25 120.11 85.05 121.56 85.05 122.48 85 122.53 84.4 122.96 84.35 123.02 85.53 118.7 85.53 118.76 85.11 119.13 85.05 119.18 84.25 119.18 80.35" class="cls-3"/><path d="M318.18,424.75h2.71l.59,1.46-.43.05-.05.43h1.79l-.05-.43-.27-.05-.34-.71L320,420.11h-.52l-2,5.18-.44.92-.27.05-.05.43h1.43l-.06-.43-.43-.05.55-1.46m.17-.43,1.18-3,1.19,3h-2.37" class="cls-3" transform="translate(-193.35 -341.15)"/></svg>